<svg width="7" height="10" viewBox="0 0 7 10" fill="none" xmlns="http://www.w3.org/2000/svg">
<path d="M2.19207 8.86723L2.93607 5.5594H0.598267L3.86608 0.752869L3.12208 4.0594H5.46409L2.19207 8.86723Z" fill="#4D1616"/>
<path d="M2.7194 9.00688C2.79579 8.66721 2.87217 8.32754 2.94855 7.98787C3.07802 7.41215 3.2075 6.83643 3.33695 6.2607C3.3791 6.07327 3.42126 5.88585 3.4634 5.69841C3.49507 5.55759 3.48559 5.4206 3.40826 5.29386C3.31084 5.13422 3.12891 5.03385 2.93605 5.03385C2.48174 5.03385 2.02744 5.03385 1.57313 5.03385C1.24817 5.03385 0.923208 5.03385 0.598247 5.03385C0.75565 5.29717 0.913052 5.5605 1.07045 5.82383C1.20277 5.62924 1.33508 5.43464 1.4674 5.24005C1.77453 4.78836 2.08165 4.33669 2.38878 3.885C2.73598 3.37437 3.08319 2.86374 3.4304 2.35311C3.68296 1.98168 3.93552 1.61025 4.18808 1.23881C4.23814 1.16519 4.2882 1.09156 4.33827 1.01794C4.0051 0.883077 3.67192 0.748236 3.33874 0.613386C3.26236 0.952921 3.18596 1.29246 3.10959 1.632C2.98012 2.20749 2.85065 2.78299 2.72119 3.35849C2.67904 3.54585 2.63689 3.7332 2.59474 3.92056C2.56306 4.06137 2.57255 4.19839 2.64987 4.3251C2.74729 4.48476 2.92923 4.58512 3.12208 4.58512C3.57719 4.58512 4.03232 4.58512 4.48745 4.58512C4.813 4.58512 5.13854 4.58512 5.46409 4.58512C5.30669 4.3218 5.14928 4.05847 4.99188 3.79515C4.8594 3.98979 4.72691 4.18444 4.59443 4.37909C4.28691 4.83089 3.97939 5.2827 3.67186 5.73451C3.3242 6.24527 2.97655 6.75605 2.62889 7.2668C2.376 7.63835 2.12312 8.00989 1.87023 8.38142C1.8201 8.45506 1.76998 8.52871 1.71985 8.60235C1.55661 8.84219 1.6686 9.1815 1.91604 9.32065C2.04234 9.39168 2.19628 9.41085 2.33744 9.37358C2.47968 9.33602 2.58499 9.24878 2.66426 9.13232C2.79674 8.93766 2.92923 8.74303 3.06172 8.54838C3.36924 8.09658 3.67675 7.64477 3.98428 7.19297C4.33195 6.6822 4.6796 6.17143 5.02725 5.66066C5.28014 5.28913 5.53303 4.91759 5.78592 4.54606C5.83604 4.47241 5.88618 4.39877 5.9363 4.32512C6.04174 4.17021 6.03137 3.95097 5.9363 3.79517C5.83887 3.63551 5.65695 3.53514 5.46409 3.53514C5.00897 3.53514 4.55384 3.53514 4.09872 3.53514C3.77317 3.53514 3.44762 3.53514 3.12208 3.53514C3.29786 3.75666 3.47364 3.97819 3.64942 4.19971C3.7258 3.86017 3.80219 3.52063 3.87857 3.1811C4.00804 2.6056 4.13751 2.03011 4.26697 1.45461C4.30911 1.26725 4.35127 1.0799 4.39341 0.892536C4.41946 0.799489 4.41946 0.706443 4.39341 0.613405C4.35581 0.482174 4.26433 0.368399 4.1421 0.299652C4.0158 0.228599 3.86185 0.209427 3.7207 0.246702C3.5785 0.284249 3.47307 0.371483 3.39386 0.487968C3.26155 0.682555 3.12923 0.877152 2.99692 1.07175C2.68979 1.52343 2.38267 1.97511 2.07554 2.42679C1.72834 2.93742 1.38113 3.44805 1.03392 3.95868C0.781363 4.33011 0.528794 4.70154 0.276245 5.07298C0.226186 5.14661 0.176118 5.22023 0.126059 5.29385C0.0206785 5.44883 0.030952 5.66795 0.126059 5.82381C0.223481 5.98346 0.405415 6.08383 0.598267 6.08383C1.05257 6.08383 1.50688 6.08383 1.96119 6.08383C2.28615 6.08383 2.61111 6.08383 2.93607 6.08383C2.76029 5.86231 2.58451 5.64079 2.40873 5.41926C2.33234 5.75893 2.25595 6.09861 2.17958 6.43827C2.0501 7.014 1.92064 7.58972 1.79117 8.16545C1.74902 8.35287 1.70687 8.5403 1.66472 8.72774C1.63305 8.86855 1.64252 9.00555 1.71985 9.13228C1.79146 9.24964 1.90999 9.33745 2.04668 9.37355C2.32171 9.44618 2.65648 9.28668 2.7194 9.00688Z" fill="#4D1616"/>
</svg>
